<?xml version="1.0" standalone="no"?>
<!DOCTYPE svg PUBLIC "-//W3C//DTD SVG 20010904//EN"
 "http://www.w3.org/TR/2001/REC-SVG-20010904/DTD/svg10.dtd">
<svg version="1.0" xmlns="http://www.w3.org/2000/svg"
 width="512.000000pt" height="512.000000pt" viewBox="0 0 512.000000 512.000000"
 preserveAspectRatio="xMidYMid meet">
<metadata>
Created by potrace 1.14, written by Peter Selinger 2001-2017
</metadata>
<g transform="translate(0.000000,512.000000) scale(0.100000,-0.100000)"
fill="#000000" stroke="none">
<path d="M1090 4627 c-42 -179 -56 -385 -36 -537 7 -54 7 -56 -37 -115 -103
-138 -176 -315 -202 -490 -29 -192 -15 -518 29 -677 l8 -27 -369 6 c-352 6
-463 2 -463 -16 0 -13 54 -20 200 -26 131 -6 446 -13 581 -14 60 -1 67 -3 77
-26 l12 -25 -78 -1 c-112 -1 -470 -16 -566 -24 -180 -14 -223 -23 -196 -40 12
-8 334 -8 420 -1 25 3 106 7 180 10 74 4 162 9 196 12 59 5 61 4 73 -23 43
-95 181 -270 284 -358 176 -152 418 -249 652 -262 61 -3 111 -7 113 -8 2 -2
-9 -21 -25 -42 -16 -22 -37 -58 -47 -81 -17 -37 -27 -45 -95 -73 -215 -90
-376 -93 -501 -8 -27 19 -74 69 -115 124 -150 206 -332 340 -489 361 -32 5
-47 2 -66 -14 l-25 -21 23 -43 c13 -24 66 -88 118 -143 117 -122 177 -201 239
-314 93 -168 253 -291 435 -337 92 -23 235 -21 334 5 44 12 80 21 80 21 9 0
-8 -450 -18 -506 -2 -10 -7 -39 -11 -64 -10 -70 -43 -163 -75 -213 -28 -45
-75 -77 -132 -91 -34 -8 -36 -21 -5 -30 80 -21 268 9 347 56 126 75 143 142
155 588 5 196 7 226 21 350 7 65 30 126 50 134 17 7 43 -31 55 -81 30 -130 33
-606 4 -778 -21 -120 -25 -129 -84 -192 -32 -35 -61 -71 -63 -81 -13 -48 40
-106 109 -118 53 -10 142 52 202 141 53 78 59 108 65 321 17 588 35 777 79
822 39 38 52 -71 56 -453 4 -467 17 -596 64 -667 27 -40 137 -104 191 -113 79
-11 98 52 50 173 -15 37 -30 72 -34 77 -12 17 -48 166 -62 255 -19 132 -16
474 6 575 22 105 46 143 66 106 14 -28 27 -99 35 -196 3 -44 8 -105 10 -135 3
-30 7 -91 10 -135 19 -260 54 -454 95 -521 53 -85 253 -184 372 -184 42 0 88
33 90 65 4 49 -13 72 -89 127 -82 59 -110 90 -140 154 -16 35 -18 76 -19 424
-1 312 -4 402 -18 473 -19 102 -44 179 -80 242 l-25 45 77 1 c42 0 88 2 102 5
213 37 336 84 495 189 137 91 289 257 357 390 24 47 35 56 63 50 22 -4 121
-11 345 -22 215 -11 510 -10 510 2 1 13 -46 22 -160 31 -52 3 -111 8 -130 9
-19 2 -134 6 -255 11 -227 8 -291 10 -312 13 -8 1 -10 8 -4 23 8 21 14 22 162
24 509 9 714 17 729 31 10 9 -28 23 -70 24 -105 4 -311 2 -548 -5 -242 -6
-252 -6 -243 12 5 10 19 67 31 127 18 98 20 136 17 350 -4 221 -6 248 -31 338
-14 53 -46 140 -70 192 -43 91 -129 226 -165 259 -15 14 -16 25 -8 93 15 132
-11 397 -53 544 l-10 36 -61 -9 c-169 -23 -358 -97 -549 -216 l-75 -47 -730 0
-730 -1 -65 42 c-184 118 -401 203 -582 228 l-37 5 -21 -92z"/>
</g>
</svg>
